<?xml version="1.0" standalone="no"?>
<!DOCTYPE svg PUBLIC "-//W3C//DTD SVG 20010904//EN"
 "http://www.w3.org/TR/2001/REC-SVG-20010904/DTD/svg10.dtd">
<svg version="1.0" xmlns="http://www.w3.org/2000/svg"
 width="515.000000pt" height="251.000000pt" viewBox="0 0 515.000000 251.000000"
 preserveAspectRatio="xMidYMid meet">
<metadata>
Created by potrace 1.16, written by Peter Selinger 2001-2019
</metadata>
<g transform="translate(0.000000,251.000000) scale(0.100000,-0.100000)"
fill="#000000" stroke="none">
<path d="M2455 2200 c-8 -13 9 -19 70 -22 l50 -3 3 -380 c2 -243 -1 -393 -8
-416 -14 -50 -81 -123 -131 -143 -142 -57 -311 30 -327 169 l-5 45 141 0 c78
0 143 4 146 9 4 5 -37 102 -91 215 l-96 206 -121 0 -121 0 -93 -201 c-50 -111
-92 -208 -92 -215 0 -11 28 -14 145 -14 l145 0 0 -27 c0 -16 13 -55 28 -88 58
-122 191 -180 323 -142 60 18 126 68 159 123 l22 35 15 -28 c41 -81 145 -143
238 -143 131 0 251 101 271 229 l7 41 143 0 c120 0 144 2 144 15 0 8 -42 105
-92 215 l-93 200 -121 0 -121 0 -96 -206 c-53 -114 -94 -211 -91 -215 3 -5 68
-9 145 -9 l139 0 0 -27 c0 -51 -45 -128 -91 -160 -24 -17 -54 -33 -67 -37 -43
-14 -130 -8 -174 12 -53 23 -113 89 -128 139 -7 26 -10 162 -8 418 l3 380 63
3 c44 2 62 7 59 15 -5 16 -282 23 -292 7z m-189 -530 l81 -175 -255 -3 c-140
-1 -257 0 -260 3 -5 4 13 44 118 268 l41 88 97 -3 97 -3 81 -175z m1016 22
c41 -86 78 -167 82 -180 l7 -22 -260 0 -260 0 18 43 c11 23 48 104 85 180 l65
137 94 0 94 0 75 -158z"/>
<path d="M144 851 c-13 -49 -6 -52 24 -11 22 29 25 30 102 30 44 0 80 -3 80
-6 0 -3 -49 -85 -110 -183 -60 -98 -110 -181 -110 -184 0 -4 63 -7 141 -7 124
0 140 2 135 16 -3 8 1 28 9 45 22 42 -2 39 -44 -6 -31 -33 -36 -35 -101 -35
l-69 0 101 163 c55 89 107 172 116 185 l14 22 -110 0 c-60 0 -123 3 -138 6
-27 5 -30 3 -40 -35z"/>
<path d="M1600 879 c-121 -51 -145 -258 -41 -352 60 -54 134 -60 206 -16 107
64 108 275 3 352 -32 24 -128 33 -168 16z m129 -38 c35 -38 51 -92 51 -175 0
-76 -17 -126 -51 -150 -82 -57 -169 40 -169 190 0 108 35 164 103 164 30 0 45
-7 66 -29z"/>
<path d="M3209 708 c-58 -165 -67 -184 -94 -198 l-30 -15 38 -3 c20 -2 52 -2
70 0 l32 4 -27 12 c-33 13 -33 18 -12 72 l16 40 72 0 72 0 17 -51 c15 -49 15
-51 -4 -56 -43 -12 -15 -23 56 -23 41 0 75 4 75 9 0 5 -10 11 -22 13 -19 3
-33 31 -93 188 -46 121 -76 186 -86 188 -12 2 -31 -39 -80 -180z"/>
<path d="M4525 871 c-62 -38 -95 -100 -95 -179 0 -147 95 -233 229 -206 34 7
86 54 94 85 8 29 -11 23 -27 -10 -8 -15 -32 -36 -52 -46 -50 -23 -95 -13 -132
30 -57 64 -66 216 -19 287 20 29 29 33 74 36 42 2 55 -1 81 -23 17 -14 34 -35
37 -45 9 -29 39 -26 31 3 -4 12 -9 34 -12 48 -5 21 -13 28 -43 33 -70 11 -135
6 -166 -13z"/>
<path d="M4840 862 c-23 -24 -30 -39 -30 -70 0 -52 27 -85 101 -122 71 -36 99
-65 99 -101 0 -45 -36 -72 -90 -66 -36 4 -50 12 -76 42 -35 42 -43 38 -37 -17
5 -37 16 -48 28 -29 3 6 22 4 47 -5 22 -7 52 -14 65 -14 39 0 92 30 108 61 34
65 8 115 -88 165 -85 45 -107 66 -107 102 0 37 29 63 71 64 24 1 39 -7 61 -30
15 -18 32 -32 38 -32 11 0 13 50 2 65 -4 6 -42 12 -85 13 -74 3 -78 2 -107
-26z"/>
<path d="M493 864 l27 -15 -2 -167 c-3 -158 -4 -167 -23 -170 -11 -2 -24 -8
-29 -13 -6 -5 19 -9 63 -9 45 0 70 4 66 10 -3 6 -15 10 -26 10 -11 0 -22 6
-25 13 -2 7 -3 78 -2 157 l3 143 69 -166 c39 -92 71 -165 72 -164 1 1 28 72
58 156 31 85 59 157 61 160 3 2 5 -64 5 -147 0 -145 -1 -152 -20 -152 -11 0
-20 -4 -20 -10 0 -6 32 -10 75 -10 41 0 75 2 75 5 0 3 -11 10 -25 15 l-25 10
0 168 c0 165 0 169 23 180 19 10 13 11 -33 9 l-55 -2 -49 -137 c-28 -76 -52
-135 -55 -132 -4 3 -31 64 -61 137 l-56 132 -59 2 c-59 3 -59 3 -32 -13z"/>
<path d="M1103 864 l27 -15 0 -165 0 -164 -25 -10 c-14 -5 -25 -12 -25 -15 0
-3 34 -5 75 -5 43 0 75 4 75 10 0 6 -9 10 -20 10 -18 0 -20 7 -20 85 l0 86 83
-3 82 -3 0 -80 c0 -75 -1 -80 -22 -83 -13 -2 -23 -8 -23 -13 0 -5 34 -9 75 -9
43 0 75 4 75 10 0 6 -9 10 -20 10 -19 0 -20 7 -20 173 0 170 0 174 23 185 18
9 7 11 -58 11 -77 0 -79 0 -52 -15 27 -15 28 -17 25 -92 l-3 -77 -82 -3 -83
-3 0 84 c0 77 2 85 23 95 18 9 7 11 -58 11 -76 0 -79 0 -52 -15z"/>
<path d="M1895 868 c11 -6 23 -16 27 -22 9 -13 11 -298 2 -320 -3 -9 -17 -16
-30 -16 -13 0 -24 -4 -24 -10 0 -6 28 -10 65 -10 37 0 65 4 65 10 0 6 -11 10
-25 10 l-25 0 0 150 c0 83 1 150 3 150 2 0 32 -70 67 -155 36 -85 68 -155 71
-155 3 0 32 72 64 160 31 88 59 160 61 160 2 0 4 -68 4 -150 l0 -150 -25 -10
c-14 -5 -25 -12 -25 -15 0 -3 34 -5 75 -5 43 0 75 4 75 10 0 6 -9 10 -20 10
-19 0 -20 7 -20 175 0 173 0 176 23 185 17 7 10 9 -34 9 l-56 1 -48 -132 c-26
-73 -51 -136 -55 -141 -3 -4 -19 23 -34 60 -15 38 -41 101 -58 141 l-30 72
-56 0 c-48 -1 -54 -2 -37 -12z"/>
<path d="M2368 868 c22 -11 22 -15 22 -180 0 -161 -1 -170 -20 -175 -53 -14
-7 -23 114 -23 l134 0 7 32 c4 18 9 41 11 51 7 23 -13 22 -20 -1 -15 -45 -44
-62 -106 -62 l-60 0 0 85 0 85 55 0 c46 0 56 -3 67 -22 12 -21 13 -20 18 27 6
60 4 65 -16 37 -12 -18 -25 -22 -70 -22 l-55 0 3 83 3 82 59 -1 c53 -1 63 -5
83 -30 26 -34 35 -29 27 14 l-6 32 -137 -1 c-105 0 -131 -3 -113 -11z"/>
<path d="M2838 868 c22 -11 22 -15 22 -180 0 -161 -1 -170 -20 -175 -43 -11
-17 -23 50 -23 67 0 93 12 50 23 -18 5 -20 14 -20 86 l0 81 54 0 c44 0 56 -4
69 -22 15 -22 16 -21 16 32 0 53 -1 54 -16 33 -13 -19 -25 -23 -69 -23 l-54 0
0 79 c0 90 5 96 76 85 26 -4 51 -15 65 -30 30 -32 36 -30 31 11 l-4 35 -137
-1 c-105 0 -131 -3 -113 -11z"/>
<path d="M3538 863 c21 -15 22 -21 22 -179 l0 -164 -27 -13 c-25 -10 -14 -12
87 -15 63 -2 131 2 151 7 86 25 113 117 51 172 -18 16 -41 29 -52 29 -28 0
-25 15 5 28 29 13 42 54 29 91 -16 45 -65 61 -184 60 -98 0 -104 -1 -82 -16z
m183 -14 c23 -12 34 -50 25 -85 -5 -17 -20 -31 -49 -44 -74 -34 -77 -32 -77
66 l0 87 41 -7 c23 -4 50 -11 60 -17z m44 -184 c19 -18 25 -35 25 -65 0 -63
-32 -90 -110 -90 l-60 0 0 83 c0 46 3 87 7 90 3 4 31 7 60 7 44 0 58 -5 78
-25z"/>
<path d="M3898 864 c21 -16 22 -22 22 -185 0 -162 -1 -169 -20 -169 -11 0 -20
-4 -20 -10 0 -6 32 -10 75 -10 41 0 75 2 75 5 0 3 -11 10 -25 15 -23 9 -25 14
-25 75 0 75 13 83 50 33 52 -71 103 -118 138 -127 47 -14 61 -3 24 19 -25 16
-122 129 -122 143 0 3 20 15 45 27 77 37 96 106 46 162 l-29 33 -129 2 c-120
3 -127 2 -105 -13z m199 -19 c31 -20 39 -74 18 -115 -17 -33 -66 -60 -110 -60
-25 0 -25 0 -25 93 0 52 3 97 8 101 10 11 83 -2 109 -19z"/>
<path d="M4263 867 l27 -11 0 -173 c0 -165 -1 -173 -19 -173 -11 0 -23 -4 -26
-10 -4 -6 23 -10 74 -10 45 0 81 2 81 5 0 3 -11 10 -25 15 l-25 10 0 169 0
169 28 10 c22 8 10 10 -58 10 -72 0 -81 -2 -57 -11z"/>
</g>
</svg>
